<svg width="640" height="130" xmlns="http://www.w3.org/2000/svg" xmlns:xlink="http://www.w3.org/1999/xlink">
 <metadata id="metadata135">image/svg+xml</metadata>
 <g>
  <g stroke="null" id="logo-group">
   <g stroke="null" id="logo-center">
    <g stroke="null" font-style="normal" font-weight="normal" font-size="72px" font-family="'Permanent Marker'" text-anchor="middle" id="title">
     <path stroke="null" transform="translate(0,332.9453125) " d="m167.22228,-211.085927q-1.40624,0 -4.35936,-0.42188q-2.25,-2.39064 -4.07814,-6.46876q-1.6875,-4.21874 -2.67186,-8.85938q-0.84376,-4.78124 -0.84376,-9.42186q0.1406,-4.78126 1.6875,-8.4375q0,-0.14062 1.26562,-3.375q1.40626,-3.23438 3.51564,-8.15626q2.10936,-5.0625 4.78124,-11.10938q2.67188,-6.1875 5.34376,-12.09374q2.67186,-5.90626 5.0625,-10.6875q2.53124,-4.92188 4.35936,-7.59376q1.26564,-1.96874 2.25,-3.79686q1.125,-1.82814 2.10938,-3.375q1.54688,-2.53126 2.8125,-4.64064q1.40626,-2.25 2.95312,-3.9375q1.6875,-1.82812 3.65626,-3.09374q1.96874,-1.40626 4.78124,-2.39062q1.6875,0.70312 2.95314,1.54686q1.26562,0.70314 2.25,1.82814l0.42186,1.96874q0.28126,0.98438 0.84376,1.40626q0.70312,0.28124 1.125,0.28124q1.82812,0.42188 3.09374,0.98438q1.40626,0.42188 2.95314,0.5625q0.5625,0.84374 0.98436,1.6875q0.5625,0.84374 1.125,1.54688q2.8125,4.07812 4.64064,7.875q1.82812,3.79686 0,8.29686l0.1406,1.54688q0.70312,0.98438 0.70312,1.82812q0,0.84376 -0.28124,2.39064q-0.1406,1.125 -0.28126,2.53124q0,1.26562 0.42188,2.8125l0.98438,1.125q2.25,1.125 4.35936,1.125q2.8125,0 5.0625,-1.26562q2.25,-1.26562 4.21876,-2.53126q1.54688,-1.125 2.8125,-1.82812q1.40624,-0.70312 2.67188,-0.98438q2.95312,-2.8125 5.34374,-4.92186q2.53126,-2.25 5.20312,-4.5q5.0625,-4.07814 9.84376,-8.71876q4.78124,-4.78124 7.59374,-11.8125q1.54688,-0.98438 3.51564,-0.98438q1.96874,0 3.9375,0.84376q1.96874,0.70312 3.9375,1.6875q0.42186,0.28124 0.70312,0.42188q0.42188,0.14062 0.84374,0.42186q0,1.54688 1.26564,2.8125q0.70312,0.5625 0.98436,0.70314q0.28126,0.14062 0.5625,0.28124q1.125,0.70312 1.82814,1.26562q0.84374,0.5625 1.26562,1.54688q1.26562,3.79688 4.21874,5.90626q-0.28124,1.54686 0.1406,3.09374q0.42186,1.40626 0.98436,2.8125q0.28126,0.5625 0.42188,1.125q0.1406,0.42188 0.42188,1.125l-3.09376,-0.28124l0.42188,3.09374q0.42188,2.39062 -0.42188,5.34376q-0.70312,2.95312 -1.6875,4.64062q0.28126,4.21874 0.28126,6.75q0,2.39062 -0.28126,4.5q-0.28124,2.10938 -0.98436,4.07812q-0.5625,1.82812 -1.54688,3.9375q0.5625,10.6875 -2.53126,19.54688q-2.95312,8.85938 -6.46874,16.59374q-0.42188,0.98438 -0.84376,1.82814q-0.42186,0.84374 -0.70312,1.6875q-1.54688,0.42186 -2.8125,0.98436q-1.26562,0.5625 -2.39062,1.26564q-1.54688,0.98436 -3.09376,1.6875q-1.54686,0.5625 -3.23436,0.5625q-6.75,-4.92188 -7.03126,-17.01564q-0.1406,-12.09374 5.20312,-30.79686q0.98438,-0.70314 0.84376,-2.10938l0,-1.54688l-1.40626,-0.14062q-0.70312,0 -1.26562,0.14062q-0.5625,0.14062 -0.84374,1.26562q-4.5,3.23438 -9.84376,6.75q-5.20312,3.375 -10.82812,6.32814q-5.625,2.8125 -11.53126,4.78124q-5.76562,1.82812 -11.25,1.82812q-14.0625,0 -21.23436,-14.34374l-1.26564,-2.53126l-1.40624,2.25q-0.42188,0.70314 -1.54688,2.8125q-0.98438,1.96876 -2.10938,4.64064q-0.98436,2.67186 -1.82812,5.48436q-0.70312,2.8125 -0.42188,4.92188q-1.6875,1.54688 -3.375,3.51562q-1.54686,1.96876 -2.25,4.5q-0.28124,0.70314 -0.1406,1.40626q0.1406,0.5625 0.42188,1.26562q-0.1406,0.98438 -0.5625,1.40626q-0.42188,0.42186 -0.98438,0.84374q-0.70312,0.70312 -1.40624,1.54688q-0.70314,0.70312 -1.26564,1.6875q-0.28124,0.84374 -0.42186,1.82812q-0.1406,0.84376 -0.28126,1.54688q0,1.54688 -0.42188,2.10938q-1.4062,2.95312 -2.5312,4.92186q-0.98438,1.82814 -1.96876,2.81252q-0.98436,0.98436 -2.10936,1.26562q-0.98438,0.42188 -2.39064,0.42188z" id="path137"/>
     <path stroke="null" transform="translate(0,332.9453125) " d="m373.378555,-292.226567q0.1406,0.98438 0,1.54688q0,0.42188 -0.1406,0.84374q0,0.42188 0,0.98438q0,0.42188 0.28124,1.40626q-2.95312,4.78124 -6.89062,6.60936q-3.79688,1.6875 -8.29688,2.53126q-4.5,0.70312 -9.28124,1.54688q-4.64064,0.84374 -9.28126,3.65624q-1.82812,-0.70312 -3.375,0q-1.40624,0.70312 -4.21874,0.42188q-0.84376,0.84374 -2.10938,1.26562q-1.26562,0.28126 -2.53126,0.70312q0.5625,1.26564 0.42188,2.67188q0,1.26562 0.42188,2.10938q4.92188,0.42188 10.82812,-0.14062q6.04688,-0.5625 11.8125,-0.70312q0.1406,0.70312 -0.1406,0.98438q-0.28126,0.1406 -0.1406,0.70312q0.98436,0.70312 1.96874,1.82812q0.98438,0.98438 1.96876,1.96876q0.98436,0.98436 1.96874,1.6875q1.125,0.5625 2.53126,0.42186q0.5625,1.125 0.70312,2.53126q0.28124,1.26562 -0.28126,2.67188q-2.25,1.54686 -4.5,3.23436q-2.25,1.54688 -4.78124,2.8125q-2.39062,1.26564 -5.20312,2.10938q-2.67188,0.70312 -6.04688,0.5625q-0.70312,0 -1.125,0q-0.28126,0 -0.84376,-0.42188q-1.125,0.70312 -3.23436,0.42188q-1.96876,-0.28124 -3.09376,0.42188q-1.54688,-0.70312 -3.79688,-0.5625q-2.10936,0 -3.79686,-0.5625q-2.25,2.95312 -4.07814,6.32812q-1.82812,3.375 -3.23436,7.17188q4.78124,0.70312 7.875,0.5625q3.23436,-0.14062 6.04686,-0.42188q2.8125,-0.42188 5.76564,-0.70312q2.95312,-0.42188 7.45312,-0.28126q2.8125,-1.54688 6.60938,-1.96874q3.9375,-0.5625 7.17186,-1.6875q1.125,0.42186 1.96876,1.54686q0.84374,0.98438 1.54688,1.96876q0.84374,0.84374 1.6875,1.54688q0.84374,0.70312 2.10936,0.5625q0.5625,0.5625 0.70314,1.40624q0.28124,0.70312 0.42186,1.40626q0.1406,0.70312 0.42188,1.26562q0.42188,0.42188 1.26562,0.28124q-2.10936,4.64064 -4.92186,7.17188q-2.67188,2.39062 -6.1875,3.65626q-3.51564,1.26562 -7.875,1.96874q-4.21876,0.70312 -9.42188,1.6875q-1.26562,0.28126 -2.10938,-0.14062q-0.84374,-0.28126 -1.96874,-0.28126q-3.23438,0.70314 -7.73438,1.26564q-4.5,0.5625 -9.14062,0.42186q-4.6407,-0.14062 -8.85944,-1.26562q-4.21876,-0.98438 -6.89062,-3.65626q-1.125,-0.98436 -1.54688,-2.25q-0.28126,-1.40624 -1.82812,-2.10936q-0.1406,-1.82814 -0.5625,-4.07814q-0.42188,-2.25 -0.84376,-4.64062q-0.42188,-2.53124 -0.70312,-4.92188q-0.1406,-2.39062 0.28124,-4.35936q0.42188,-2.10938 1.6875,-3.79688q1.40626,-1.6875 0.98438,-3.65626q0.70312,-0.1406 0.84376,-0.70312q0.1406,-0.70312 1.125,-0.5625q0.84374,-2.53124 1.82812,-4.78124q0.98438,-2.25 1.96874,-4.35938q1.125,-2.10938 2.10938,-4.21876q1.125,-2.25 2.10938,-4.92186q-1.96876,-1.82814 -2.95312,-3.9375q-0.84376,-2.25 -1.26564,-4.35938q-0.42186,-2.25 -0.70312,-4.5q-0.28124,-2.39062 -0.98438,-4.78126q1.40626,-2.10936 3.375,-3.375q2.10938,-1.40624 4.5,-2.25q2.39064,-0.84374 5.20314,-1.40624q2.8125,-0.5625 5.90624,-1.26562q5.625,-1.82814 9.98438,-2.8125q4.5,-0.98438 8.71874,-1.54688q4.35938,-0.70312 9,-1.26562q4.64064,-0.5625 10.54688,-1.6875q1.26562,1.26562 2.39062,1.26562q0.5625,-1.26562 1.26564,-0.70312q0.84374,0.42186 0.70312,-0.84376q1.40624,2.39062 3.51562,4.07812q2.25,1.54688 4.92188,2.67188z" id="path139"/>
     <path stroke="null" transform="translate(0,332.9453125) " d="m398.831675,-238.648451q-1.26562,0.28126 -1.82812,1.54688q-0.5625,1.125 -1.125,2.39062q-0.42188,1.26564 -0.98438,2.39064q-0.42188,0.98436 -1.40624,0.98436q-0.1406,1.125 -0.84376,1.96876q-0.5625,0.84374 -1.125,1.82812q-0.5625,0.84376 -0.84374,1.96876q-0.28126,0.98436 0.28124,2.39062q-1.125,0.84374 -1.40624,2.39062q-0.28126,1.54688 -0.70314,2.95312q-0.28124,1.40626 -1.125,2.39064q-0.84374,0.98436 -3.09374,0.84374q-0.42188,0.5625 -0.1406,0.70314q0.28124,0.14062 0.42186,0.98436q-1.54686,-0.28124 -2.39062,0.14064q-0.70312,0.5625 -1.82812,0.70312q-2.67188,-0.84376 -4.5,-2.95312q-1.6875,-2.10938 -3.09376,-4.64064q-1.26562,-2.67188 -2.39062,-5.34374q-0.98438,-2.67188 -1.96874,-4.64064q0.42186,-1.54686 0.1406,-2.95312q-0.28126,-1.54688 -0.98438,-2.53124q6.89062,-14.625 15.04688,-31.21876q8.15624,-16.59374 15.46874,-32.76562q3.23438,1.26562 6.32814,2.95312q3.23436,1.54688 5.76562,3.65626q2.67188,2.10936 4.5,4.92186q1.82812,2.67188 2.39062,6.04688q-0.28124,0.84376 -0.70312,0.70312q-0.28126,-0.28124 -0.5625,0.14062q0.5625,0.70314 0.5625,0.98438q0.1406,0.28126 0,0.5625q0,0.28126 0,0.84376q0,0.42186 0.42188,1.26562q-0.5625,-0.14062 -0.84376,0.14062q-0.1406,0.28124 -0.84374,0q0.5625,1.54688 0.28124,2.53124q-0.1406,0.98438 -0.5625,1.82814q-0.42188,0.70312 -0.70312,1.6875q-0.28126,0.84374 0.1406,2.25q-0.42188,0 -0.70312,0.28124q-0.1406,0.14062 -0.28126,0.42188q-0.1406,0.14062 -0.42186,0.42188q-0.1406,0.14062 -0.5625,0q0.42186,3.09374 0.28124,6.1875q-0.1406,3.09374 -0.28124,6.32812q0,3.09374 0.1406,6.60938q0.1406,3.375 0.98438,7.03124q5.0625,-2.95312 8.01562,-7.59374q3.09374,-4.64064 4.92188,-10.40626q1.96874,-5.76562 2.95312,-12.375q0.98438,-6.60938 2.10938,-13.5q1.26562,-1.26562 1.96874,-3.09374q0.70312,-1.82814 1.26562,-3.79688q0.5625,-2.10938 1.125,-4.07812q0.5625,-2.10938 1.40626,-3.79688q2.10938,0.28124 3.51562,1.40624q1.54688,0.98438 2.8125,2.25q1.26562,1.125 2.67188,2.25q1.40624,0.98438 3.51562,1.26564q1.6875,2.39062 3.09376,4.64062q1.40624,2.25 1.82812,4.78124q-0.70312,1.125 -1.125,2.53126q-0.28126,1.40624 -0.70312,2.8125q-0.42188,1.40624 -1.125,2.67188q-0.70314,1.125 -1.96876,1.96874q-0.42188,3.65626 -1.125,6.75q-0.5625,2.95312 -1.26562,5.90626q-0.5625,2.95312 -0.98438,6.1875q-0.42188,3.09374 -0.28124,6.89062q-1.125,3.23438 -2.39064,6.89062q-1.26562,3.65626 -1.96874,6.60938q-2.25,1.82812 -3.51562,4.35938q-1.26564,2.53124 -2.67188,5.0625q-0.5625,0.5625 -0.70312,0.28124q-0.1406,-0.28124 -0.98438,-0.42188q0.1406,0.5625 0,0.84376q-0.1406,0.28124 -0.42188,0.5625q-0.1406,0.14062 -0.28124,0.5625q0,0.42188 0.28124,1.125q-1.96874,0.84374 -3.51562,2.39062q-1.54688,1.54688 -3.375,2.8125q-1.6875,1.26562 -4.21876,1.6875q-2.39062,0.42188 -6.32812,-0.98438q-5.76562,-4.21874 -10.26562,-9.70312q-4.35934,-5.48436 -7.17184,-13.07812z" id="path141"/>
     <path stroke="null" transform="translate(0,332.9453125) " d="m520.612966,-251.023448q-0.1406,0.70314 -0.28126,1.26564q-0.1406,0.42186 -0.28124,0.84374q-0.1406,0.42188 -0.1406,1.125q0,0.5625 0,1.54688q-4.21874,7.45312 -10.6875,12.51562q-6.32812,5.0625 -14.0625,9q-7.59374,3.79688 -15.89062,7.03126q-8.29688,3.09374 -16.17188,6.75q-3.375,-0.84376 -5.20312,-2.8125q-1.6875,-1.96876 -2.67188,-4.5q-0.84374,-2.67188 -1.26562,-5.76562q-0.28124,-3.23438 -0.5625,-6.60938q0.42188,-1.54688 1.125,-2.53126q0.84376,-1.125 0.84376,-3.09374q1.125,-3.65626 2.25,-7.17188q1.125,-3.51562 1.40624,-7.17188q0.42188,-1.125 1.54688,-1.54688q0.70312,-6.75 0,-13.64062q-0.5625,-7.03124 -2.25,-13.07812q0.1406,-1.40626 0.28124,-1.96876q0.28126,-0.70312 0,-0.98436q-0.1406,-1.125 0.70314,-1.125q0.98436,0 1.96874,0q0,-2.10938 -0.84374,-4.21876q-0.70314,-2.10938 -1.40626,-4.78124q0.98438,-2.10938 1.26562,-4.07814q0.28126,-2.10936 1.26564,-3.65624q7.59374,2.39062 14.48436,5.76562q7.03126,3.375 13.78126,4.92188q5.0625,3.65624 10.40624,7.3125q5.34376,3.51562 9.70314,7.875q4.35936,4.21874 7.3125,9.70312q2.95312,5.48438 3.375,13.07812l-0.00004,0zm-33.32814,7.73438q2.95314,-1.125 5.76564,-2.39062q2.95312,-1.26562 5.34374,-2.8125q2.53126,-1.6875 4.5,-3.79688q1.96876,-2.10938 3.23438,-5.0625q-0.84376,-1.6875 -2.25,-2.95312q-1.40626,-1.40626 -2.8125,-2.53126q-1.40626,-1.26562 -2.8125,-2.53124q-1.26562,-1.26562 -2.10938,-3.09376q-1.82812,-0.28124 -3.23438,-0.98436q-1.40624,-0.84376 -2.8125,-1.54688q-1.26562,-0.84376 -2.8125,-1.54688q-1.40624,-0.70312 -3.375,-0.84374q-3.09374,-1.54688 -5.625,-2.25q-2.39062,-0.70314 -3.65624,-1.82814q-0.98438,0 -1.54688,0.42188q1.40626,5.34376 2.10938,10.125q0.70312,4.64062 0.70312,9.42188q0.1406,4.64062 -0.42188,9.5625q-0.5625,4.92188 -1.54686,10.6875q1.40624,-0.14062 2.53124,-0.5625q1.26562,-0.5625 2.39062,-1.125q1.26564,-0.5625 2.53126,-0.98438q1.40624,-0.5625 3.23438,-0.70312q0.42186,-0.84376 1.125,-1.40626q0.84374,-0.5625 1.54686,-1.26562z" id="path143"/>
     <path stroke="null" transform="translate(0,332.9453125) " d="m604.987874,-255.24219q-0.1406,1.6875 0.28124,3.23438q0.42188,1.54686 0.98438,3.09374q0.70312,1.40626 1.26562,2.95312q0.5625,1.54688 0.84376,3.09376q0.28124,1.96874 0,4.35938q-0.28126,2.25 -0.98438,4.5q-0.70312,2.10936 -1.82812,3.9375q-1.125,1.6875 -2.67188,2.53124q-1.96876,2.53126 -4.78126,3.9375q-2.8125,1.40626 -5.20312,3.375q-1.54688,0.98438 -3.51562,1.40626q-1.82812,0.42186 -3.79688,0.84374q-1.54688,0.84376 -3.65624,1.82812q-2.10938,0.84376 -4.35938,1.68752q-2.25,0.70312 -4.5,1.125q-2.25,0.28124 -3.9375,0.14062q-4.21876,1.54688 -8.29688,1.96874q-3.9375,0.5625 -9.28124,-0.5625q-5.0625,0.70314 -9.42188,-0.42186q-4.21876,-1.125 -7.59376,-3.51564q-3.23436,-2.53124 -5.76562,-5.90624q-2.39062,-3.51564 -3.9375,-7.3125q-1.125,-8.01564 0.5625,-14.48438q1.6875,-6.60938 4.78126,-12.09376q3.23436,-5.625 7.3125,-10.26562q4.07812,-4.78124 7.875,-9.28124q0.84374,0.28124 1.26562,0q0.5625,-0.42188 0.98438,-0.98438q0.42186,-0.70312 0.84374,-1.26562q0.5625,-0.5625 1.26562,-0.70314q0.98438,-2.10936 2.8125,-3.09374q1.96876,-1.125 3.09376,-3.09376q1.26562,-0.28124 2.10938,-0.84374q0.84374,-0.5625 1.54686,-1.26562q0.84376,-0.70314 1.6875,-1.26564q0.84376,-0.70312 1.96876,-0.98436l0,-1.54688q2.53124,-1.125 3.65624,-2.53126q1.26564,-1.54686 2.95314,-3.65624q1.26562,-0.14062 1.96874,-0.14062q0.84376,0 2.39062,-0.28124q1.125,-1.96876 1.96876,-2.95314q0.98438,-0.98436 2.8125,-2.10936q1.6875,0.84374 3.65624,1.125q2.10938,0.28124 3.65626,1.82812q0.1406,1.40624 0.84374,2.25q0.70314,0.70312 1.54688,1.40624q0.84376,0.5625 1.54688,1.26564q0.84374,0.70312 1.125,1.96874q0.5625,0.14062 0.70312,-0.14062q0.28126,-0.28124 0.84376,-0.14062q0.42186,1.96876 0.98436,2.67188q0.5625,0.5625 1.125,2.39062q-0.70312,1.40626 -1.125,2.95312q-0.28124,1.40626 -1.6875,2.10938q-0.1406,0.98438 0.5625,1.125q0.70314,0 0.84376,0.70312q0.1406,1.26564 -0.42188,1.82814q3.375,5.48436 6.04688,11.67186q2.67188,6.04688 6.04688,11.53126l0,-0.00002zm-17.57814,13.35938q0.5625,-1.54688 1.40626,-2.53126q0.98438,-0.98438 1.125,-2.95312q-0.70312,-1.125 -0.84376,-1.6875q-0.1406,-0.70312 -0.1406,-2.10938q-3.09374,-4.35938 -5.34374,-9.28124q-2.25,-5.0625 -5.0625,-9.42188q-0.28126,0.5625 -0.98438,1.125q-0.70312,0.5625 -1.54688,-0.28126q-0.28124,1.125 -0.98438,1.6875q-0.70312,0.42188 -1.54686,0.42188q-0.84376,-0.14062 -1.82814,-0.42188q-0.84374,-0.42186 -1.54686,-0.98436q-4.07814,3.23436 -8.15626,6.32812q-4.07812,3.09374 -7.3125,7.17188q-0.5625,0.28124 -0.70312,0.28124q-0.1406,-0.14062 -0.84376,0.14062q-1.125,2.67188 -2.8125,4.92188q-1.54686,2.10938 -3.09374,4.35938q-1.54688,2.25 -2.67188,4.78124q-1.125,2.53126 -1.26562,5.90626q2.39062,1.96874 5.625,2.39062q3.23438,0.42188 6.60938,0.14062q3.51562,-0.28124 6.75,-0.84374q3.375,-0.70314 6.1875,-0.70314q5.90624,-1.40624 10.125,-3.65624q4.21874,-2.39062 8.85936,-4.78126l-0.00002,0.00002z" id="path145"/>
    </g>
    <g stroke="null" font-style="oblique" font-weight="300" font-size="32px" font-family="Raleway" text-anchor="middle" id="tagline"/>
   </g>
  </g>
 </g>
</svg>